<svg width="117" height="19" viewBox="0 0 117 19" fill="none" xmlns="http://www.w3.org/2000/svg">
<path d="M1 11.4464L0.999999 7.16433" stroke="#323232" stroke-width="2" stroke-linecap="round"/>
<path d="M7.73242 16.8964L7.73242 2.10371" stroke="#323232" stroke-width="2" stroke-linecap="round"/>
<path d="M14.4646 11.8357L14.4646 7.16433" stroke="#323232" stroke-width="2" stroke-linecap="round"/>
<path d="M21.1968 11.8357L21.1968 7.16433" stroke="#323232" stroke-width="2" stroke-linecap="round"/>
<path d="M27.9292 16.8964L27.9292 2.10371" stroke="#323232" stroke-width="2" stroke-linecap="round"/>
<path d="M34.6614 13.3928L34.6614 5.60722" stroke="#323232" stroke-width="2" stroke-linecap="round"/>
<path d="M41.3936 14.5607L41.3936 4.43938" stroke="#323232" stroke-width="2" stroke-linecap="round"/>
<path d="M48.126 16.8964L48.126 2.10371" stroke="#323232" stroke-width="2" stroke-linecap="round"/>
<path d="M54.8582 13.3928L54.8582 5.60722" stroke="#323232" stroke-width="2" stroke-linecap="round"/>
<path d="M61.5906 14.1714L61.5906 4.43938" stroke="#323232" stroke-width="2" stroke-linecap="round"/>
<path d="M68.3228 17.6749L68.3228 1.32516" stroke="#323232" stroke-width="2" stroke-linecap="round"/>
<path d="M75.0549 13.3928L75.0549 5.60722" stroke="#323232" stroke-width="2" stroke-linecap="round"/>
<path d="M81.7874 12.6143L81.7874 6.38577" stroke="#323232" stroke-width="2" stroke-linecap="round"/>
<path d="M88.5195 13.3928L88.5195 5.60722" stroke="#323232" stroke-width="2" stroke-linecap="round"/>
<path d="M95.2517 12.225L95.2517 6.77505" stroke="#323232" stroke-width="2" stroke-linecap="round"/>
<path d="M101.984 12.6143L101.984 6.38577" stroke="#323232" stroke-width="2" stroke-linecap="round"/>
<path d="M108.716 12.225L108.716 6.77505" stroke="#323232" stroke-width="2" stroke-linecap="round"/>
<path d="M115.449 14.5607L115.449 4.43938" stroke="#323232" stroke-width="2" stroke-linecap="round"/>
</svg>
